<svg width="44" height="44" viewBox="0 0 44 44" fill="none" xmlns="http://www.w3.org/2000/svg">
<path d="M27.9363 19.8184L26.8932 22.924C26.5059 24.1044 25.8468 25.1774 24.9688 26.0563C24.0908 26.9352 23.0186 27.5955 21.8387 27.984L18.6982 29.0272C18.592 29.0616 18.4994 29.1287 18.4338 29.2189C18.3681 29.3092 18.3328 29.4179 18.3328 29.5295C18.3328 29.6411 18.3681 29.7498 18.4338 29.8401C18.4994 29.9304 18.592 29.9975 18.6982 30.0319L21.8387 31.075C23.0077 31.4637 24.0698 32.1199 24.9406 32.9913C25.8114 33.8628 26.4668 34.9254 26.8547 36.0947L27.896 39.2389C27.9294 39.346 27.9961 39.4396 28.0865 39.5061C28.1769 39.5726 28.2861 39.6085 28.3983 39.6085C28.5105 39.6085 28.6198 39.5726 28.7101 39.5061C28.8005 39.4396 28.8673 39.346 28.9007 39.2389L29.9823 36.1332C30.3706 34.9644 31.026 33.9023 31.8963 33.0309C32.7667 32.1596 33.8282 31.5031 34.9965 31.1135L38.1388 30.0704C38.245 30.036 38.3375 29.9689 38.4032 29.8786C38.4688 29.7883 38.5042 29.6796 38.5042 29.568C38.5042 29.4564 38.4688 29.3477 38.4032 29.2574C38.3375 29.1672 38.245 29.1001 38.1388 29.0657L35.0368 27.984C33.8563 27.5964 32.7837 26.9364 31.9056 26.0574C31.0275 25.1783 30.3686 24.1049 29.9823 22.924L28.9392 19.7799C28.9099 19.7022 28.8627 19.6325 28.8015 19.5763C28.7403 19.5202 28.6668 19.4793 28.5869 19.4568C28.5069 19.4343 28.4228 19.4309 28.3414 19.4469C28.2599 19.4629 28.1833 19.4978 28.1178 19.5489C28.0302 19.6179 27.9666 19.711 27.9363 19.8184ZM12.4813 10.8112L11.7242 13.068C11.4424 13.9266 10.9627 14.707 10.3239 15.3461C9.68506 15.9853 8.90495 16.4653 8.04649 16.7475L5.76215 17.5065C5.68579 17.5323 5.61943 17.5813 5.57242 17.6468C5.52541 17.7122 5.50012 17.7908 5.50012 17.8714C5.50012 17.9519 5.52541 18.0305 5.57242 18.0959C5.61943 18.1614 5.68579 18.2104 5.76215 18.2362L8.04649 18.997C8.89651 19.2794 9.66892 19.7562 10.3023 20.3896C10.9356 21.0229 11.4124 21.7953 11.6948 22.6454L12.452 24.9334C12.4777 25.0097 12.5268 25.0761 12.5922 25.1231C12.6577 25.1701 12.7362 25.1954 12.8168 25.1954C12.8974 25.1954 12.976 25.1701 13.0414 25.1231C13.1069 25.0761 13.1559 25.0097 13.1817 24.9334L13.97 22.6747C14.253 21.825 14.73 21.0529 15.3633 20.4197C15.9966 19.7864 16.7686 19.3094 17.6183 19.0264L19.9008 18.2655C19.9772 18.2398 20.0435 18.1907 20.0906 18.1253C20.1376 18.0598 20.1628 17.9813 20.1628 17.9007C20.1628 17.8201 20.1376 17.7415 20.0906 17.6761C20.0435 17.6106 19.9772 17.5616 19.9008 17.5359L17.6458 16.7475C16.7874 16.4656 16.0074 15.9856 15.3688 15.3464C14.7303 14.7072 14.2511 13.9267 13.97 13.068L13.211 10.7819C13.1823 10.7064 13.1307 10.6418 13.0633 10.5973C12.9959 10.5528 12.9163 10.5306 12.8356 10.5338C12.7549 10.5371 12.6773 10.5656 12.6137 10.6154C12.5501 10.6651 12.5038 10.7336 12.4813 10.8112ZM26.8712 4.53752L26.4917 5.66685C26.3511 6.09616 26.1117 6.48642 25.7926 6.80616C25.4735 7.12589 25.0837 7.36614 24.6547 7.50752L23.5125 7.88702C23.4839 7.89632 23.4579 7.91226 23.4366 7.93353C23.4153 7.9548 23.3994 7.9808 23.3901 8.00941C23.3808 8.03801 23.3784 8.06841 23.3831 8.09812C23.3878 8.12783 23.3995 8.15601 23.4172 8.18035C23.4405 8.21376 23.4739 8.23882 23.5125 8.25185L24.6547 8.63135C25.0797 8.77254 25.4659 9.01095 25.7825 9.32763C26.0992 9.6443 26.3376 10.0305 26.4788 10.4555L26.8565 11.5995C26.8689 11.6384 26.8934 11.6723 26.9263 11.6963C26.9593 11.7204 26.999 11.7333 27.0398 11.7333C27.0806 11.7333 27.1204 11.7204 27.1533 11.6963C27.1863 11.6723 27.2107 11.6384 27.2232 11.5995L27.6155 10.4702C27.7571 10.0454 27.9956 9.65938 28.3122 9.34275C28.6288 9.02613 29.0148 8.78759 29.4397 8.64602L30.5818 8.26652C30.6207 8.25408 30.6546 8.22962 30.6786 8.19667C30.7027 8.16372 30.7156 8.12398 30.7156 8.08319C30.7156 8.04239 30.7027 8.00265 30.6786 7.9697C30.6546 7.93675 30.6207 7.91229 30.5818 7.89985L29.4543 7.50752C29.0249 7.36652 28.6347 7.12642 28.3152 6.80666C27.9958 6.48689 27.7561 6.09643 27.6155 5.66685L27.236 4.52285C27.2217 4.48511 27.1958 4.45283 27.1621 4.43057C27.1285 4.40832 27.0886 4.39722 27.0483 4.39884C27.008 4.40046 26.9691 4.41472 26.9374 4.43961C26.9056 4.4645 26.8824 4.49875 26.8712 4.53752Z" stroke="black" stroke-width="1.5" stroke-linecap="round" stroke-linejoin="round"/>
</svg>
