<svg width="89" height="90" viewBox="0 0 89 90" fill="none" xmlns="http://www.w3.org/2000/svg">
<path d="M82.0469 52.4918C82.0469 57.8989 81.0039 62.4938 79.057 65.7739C76.7382 69.6622 73.1469 71.7188 68.6273 71.7188C59.7447 71.7188 53.0419 59.0625 45.9428 45.6645C39.5563 33.5848 32.937 21.0938 25.7266 21.0938C21.8676 21.0938 17.8348 24.7958 14.6572 31.2504C11.4898 37.8781 9.80885 45.1312 9.73438 52.4918C9.73438 57.3891 10.6313 61.4778 12.3244 64.3219C14.1392 67.3629 16.8439 68.8922 20.3588 68.8922C26.3211 68.8922 31.8557 60.3422 36.9524 51.1032C37.0414 50.9416 37.161 50.7993 37.3044 50.6845C37.4478 50.5696 37.6122 50.4845 37.7881 50.4339C37.9641 50.3833 38.1482 50.3682 38.3299 50.3896C38.5116 50.4109 38.6873 50.4682 38.8471 50.5583C39.0069 50.6483 39.1476 50.7692 39.2612 50.9143C39.3747 51.0593 39.4589 51.2255 39.509 51.4034C39.559 51.5813 39.5739 51.7675 39.5528 51.9512C39.5317 52.1349 39.475 52.3127 39.386 52.4743C34.2511 61.7907 28.1254 71.7188 20.3588 71.7188C15.8636 71.7188 12.2618 69.6622 9.92906 65.7739C7.99609 62.4938 6.95312 57.8989 6.95312 52.4918C7.03297 44.6952 8.81361 37.0124 12.168 29.9918C15.8844 22.4403 20.6995 18.2813 25.7266 18.2813C34.6057 18.2813 41.312 30.9375 48.4111 44.3356C54.8115 56.4153 61.4274 68.9063 68.6447 68.9063C72.163 68.9063 74.8643 67.3629 76.6791 64.336C78.3721 61.4918 79.2691 57.4032 79.2691 52.5059C79.1946 45.1453 77.5137 37.8921 74.3463 31.2645C71.1652 24.7958 67.1324 21.0938 63.2734 21.0938C59.8838 21.0938 56.2682 23.9063 52.2249 29.7317C52.0077 30.0232 51.687 30.2179 51.3304 30.2747C50.9738 30.3314 50.6094 30.2457 50.3142 30.0357C50.019 29.8257 49.816 29.5079 49.7483 29.1494C49.6806 28.7909 49.7534 28.4198 49.9512 28.1145C54.6168 21.4067 58.8512 18.2708 63.2734 18.2708C68.2971 18.2708 73.1121 22.4297 76.832 29.9848C80.1874 37.0075 81.968 44.6928 82.0469 52.4918Z" fill="black"/>
</svg>
