<svg width="60" height="60" viewBox="0 0 60 60" fill="none" xmlns="http://www.w3.org/2000/svg">
<path d="M30 55C43.8075 55 55 43.8075 55 30C55 16.1925 43.8075 5 30 5C16.1925 5 5 16.1925 5 30C5 43.8075 16.1925 55 30 55Z" fill="#B38B70"/>
<path fill-rule="evenodd" clip-rule="evenodd" d="M39.2366 39.3609L25.4866 30.1942L39.2366 21.0275C39.4171 20.9072 39.5722 20.7524 39.693 20.5721C39.8137 20.3918 39.8978 20.1894 39.9404 19.9766C39.9829 19.7638 39.9832 19.5447 39.941 19.3318C39.8989 19.119 39.8153 18.9164 39.6949 18.7359C39.5745 18.5553 39.4198 18.4002 39.2395 18.2795C39.0591 18.1587 38.8568 18.0747 38.644 18.0321C38.4312 17.9895 38.2121 17.9893 37.9992 18.0314C37.7863 18.0735 37.5838 18.1572 37.4032 18.2775L21.8162 28.6689C21.5652 28.8363 21.3593 29.0631 21.2169 29.3292C21.0745 29.5953 21 29.8924 21 30.1942C21 30.496 21.0745 30.7931 21.2169 31.0592C21.3593 31.3253 21.5652 31.5521 21.8162 31.7195L37.4032 42.1109C37.5838 42.2313 37.7863 42.3149 37.9992 42.357C38.2121 42.3991 38.4312 42.3989 38.644 42.3563C38.8568 42.3138 39.0591 42.2297 39.2395 42.109C39.4198 41.9882 39.5745 41.8331 39.6949 41.6525C39.8153 41.472 39.8989 41.2695 39.941 41.0566C39.9832 40.8437 39.9829 40.6246 39.9404 40.4118C39.8978 40.199 39.8137 39.9967 39.693 39.8163C39.5722 39.636 39.4171 39.4813 39.2366 39.3609Z" fill="#F8E8D6" fill-opacity="0.5"/>
</svg>
