<svg width="381" height="50" viewBox="0 0 381 50" fill="none" xmlns="http://www.w3.org/2000/svg">
<rect width="381" height="50" fill="white"/>
<path fill-rule="evenodd" clip-rule="evenodd" d="M24.0809 14H27.5V8.5H24.0809C22.0677 8.50243 20.1376 9.30325 18.714 10.7268C17.2905 12.1504 16.4896 14.0804 16.4872 16.0937V19.5H12.8334V25H16.5V43.2197H22V25H25.7052L26.7905 19.5H22V15.0835C22.0043 14.7972 22.1201 14.5238 22.3228 14.3214C22.5254 14.1191 22.799 14.0038 23.0854 14H24.0809Z" fill="black"/>
<path d="M345.463 37.8334C344.618 37.8334 343.914 37.5511 343.349 36.9864C342.784 36.4217 342.501 35.7165 342.5 34.8707V15.1294C342.5 14.2849 342.783 13.5802 343.349 13.0156C343.915 12.4509 344.619 12.168 345.461 12.1667H372.539C373.383 12.1667 374.087 12.4497 374.651 13.0156C375.216 13.5815 375.499 14.2861 375.5 15.1294V34.8726C375.5 35.7159 375.217 36.4205 374.651 36.9864C374.085 37.5523 373.381 37.8346 372.539 37.8334H345.463ZM359 25.2127L344.333 15.6226V34.8726C344.333 35.2014 344.439 35.4715 344.65 35.6829C344.862 35.8944 345.133 36.0001 345.463 36.0001H372.539C372.868 36.0001 373.138 35.8944 373.35 35.6829C373.561 35.4715 373.667 35.2007 373.667 34.8707V15.6207L359 25.2127ZM359 23.1667L373.102 14.0001H344.898L359 23.1667ZM344.333 15.6226V14.0001V34.8726C344.333 35.2014 344.439 35.4715 344.65 35.6829C344.862 35.8944 345.133 36.0001 345.463 36.0001H344.333V15.6226Z" fill="black"/>
<path d="M191 17.4833C189.513 17.4833 188.06 17.9242 186.824 18.7501C185.588 19.5761 184.624 20.75 184.056 22.1235C183.487 23.497 183.338 25.0083 183.628 26.4664C183.918 27.9245 184.634 29.2639 185.685 30.3151C186.736 31.3663 188.075 32.0822 189.534 32.3722C190.992 32.6623 192.503 32.5134 193.877 31.9445C195.25 31.3756 196.424 30.4122 197.25 29.176C198.076 27.9399 198.517 26.4867 198.517 25C198.519 24.0122 198.326 23.0337 197.949 22.1206C197.573 21.2076 197.019 20.378 196.32 19.6795C195.622 18.9811 194.792 18.4275 193.879 18.0506C192.966 17.6737 191.988 17.4809 191 17.4833ZM191 29.895C190.032 29.895 189.085 29.6079 188.28 29.07C187.476 28.5322 186.848 27.7677 186.478 26.8732C186.107 25.9788 186.01 24.9946 186.199 24.045C186.388 23.0955 186.854 22.2233 187.539 21.5387C188.223 20.8541 189.096 20.3879 190.045 20.1991C190.995 20.0102 191.979 20.1071 192.873 20.4776C193.768 20.8481 194.532 21.4755 195.07 22.2805C195.608 23.0855 195.895 24.0319 195.895 25C195.895 26.2982 195.379 27.5433 194.461 28.4613C193.543 29.3793 192.298 29.895 191 29.895ZM200.588 17.1717C200.588 17.5343 200.481 17.8887 200.279 18.1902C200.078 18.4917 199.792 18.7267 199.457 18.8655C199.122 19.0042 198.753 19.0405 198.397 18.9698C198.042 18.899 197.715 18.7244 197.459 18.468C197.202 18.2116 197.028 17.885 196.957 17.5293C196.886 17.1737 196.922 16.8051 197.061 16.4701C197.2 16.1351 197.435 15.8488 197.736 15.6473C198.038 15.4459 198.392 15.3383 198.755 15.3383C199.241 15.3383 199.708 15.5315 200.051 15.8753C200.395 16.2191 200.588 16.6854 200.588 17.1717ZM205.557 19.005C205.612 16.7255 204.762 14.517 203.192 12.8633C202.377 12.0761 201.416 11.4571 200.362 11.0419C199.308 10.6266 198.183 10.4232 197.05 10.4433C194.667 10.3333 187.333 10.3333 184.95 10.4433C182.672 10.394 180.465 11.2436 178.808 12.8083C177.238 14.462 176.388 16.6705 176.443 18.95C176.333 21.3333 176.333 28.6667 176.443 31.05C176.388 33.3295 177.238 35.538 178.808 37.1917C180.465 38.7564 182.672 39.606 184.95 39.5567C187.37 39.7033 194.63 39.7033 197.05 39.5567C199.33 39.612 201.538 38.7616 203.192 37.1917C204.762 35.538 205.612 33.3295 205.557 31.05C205.667 28.6667 205.667 21.3333 205.557 18.95V19.005ZM202.44 33.6717C202.191 34.3022 201.815 34.8749 201.336 35.3543C200.857 35.8336 200.284 36.2094 199.653 36.4583C196.807 37.0337 193.898 37.231 191 37.045C188.108 37.2294 185.205 37.0321 182.365 36.4583C181.734 36.2094 181.162 35.8336 180.682 35.3543C180.203 34.8749 179.827 34.3022 179.578 33.6717C178.808 31.7283 178.973 27.145 178.973 25.0183C178.973 22.8917 178.808 18.29 179.578 16.365C179.82 15.7282 180.193 15.1494 180.673 14.6662C181.153 14.183 181.73 13.8061 182.365 13.56C185.205 12.9862 188.108 12.789 191 12.9733C193.898 12.7873 196.807 12.9846 199.653 13.56C200.284 13.8089 200.857 14.1847 201.336 14.6641C201.815 15.1434 202.191 15.7161 202.44 16.3467C203.21 18.29 203.027 22.8733 203.027 25C203.027 27.1267 203.21 31.7283 202.44 33.6533V33.6717Z" fill="black"/>
<path fill-rule="evenodd" clip-rule="evenodd" d="M112.54 9.12877C113.472 8.96927 114.515 8.91611 115.497 9.08294C117.248 9.3786 118.87 10.1914 120.154 11.4168C120.99 11.4351 121.813 11.2701 122.541 11.0354C123.245 10.806 123.92 10.4979 124.554 10.1169L124.571 10.1059C124.835 9.93004 125.151 9.85084 125.467 9.88176C125.783 9.91268 126.078 10.0518 126.303 10.2756C126.528 10.4994 126.668 10.794 126.701 11.1096C126.733 11.4252 126.656 11.7423 126.481 12.0071C126.101 12.5846 125.572 13.6149 124.979 14.7699L124.695 15.3218C124.356 15.9818 124.008 16.6491 123.683 17.2211C123.48 17.5804 123.262 17.9453 123.042 18.2606V18.7629C123.064 21.7671 122.488 24.7457 121.347 27.5248C120.206 30.304 118.523 32.8281 116.396 34.9498C114.269 37.0714 111.741 38.7482 108.959 39.8823C106.177 41.0164 103.197 41.585 100.193 41.5549C95.8394 41.5589 91.5777 40.3047 87.9205 37.9433C87.658 37.7746 87.4606 37.5217 87.3609 37.2261C87.2611 36.9305 87.2649 36.6098 87.3715 36.3166C87.4781 36.0234 87.6813 35.7751 87.9476 35.6126C88.2139 35.4502 88.5276 35.3831 88.8371 35.4224C91.3632 35.7244 93.9235 35.3168 96.231 34.2454C95.1052 33.7336 94.0983 32.993 93.2745 32.0707C92.4506 31.1484 91.8279 30.0646 91.446 28.8884C91.3732 28.6633 91.3597 28.4231 91.407 28.1912C91.4542 27.9593 91.5604 27.7436 91.7155 27.5648L91.7338 27.5464C90.8034 26.7175 90.0577 25.7022 89.5451 24.5665C89.0325 23.4307 88.7644 22.1998 88.7583 20.9538V20.8584C88.7582 20.5566 88.8574 20.2631 89.0406 20.0232C89.2238 19.7833 89.4809 19.6104 89.7721 19.5311C89.1513 18.2924 88.8292 16.9255 88.8316 15.5399C88.8306 13.9691 89.2415 12.4254 90.0233 11.0629C90.1344 10.8695 90.2908 10.706 90.4792 10.5866C90.6675 10.4671 90.8821 10.3953 91.1044 10.3772C91.3267 10.3592 91.5501 10.3955 91.7552 10.483C91.9604 10.5705 92.1411 10.7066 92.282 10.8796C95.4888 14.8303 100.083 17.4075 105.126 18.0846C105.083 16.4349 105.499 14.8056 106.328 13.3791C107.158 11.9525 108.368 10.7849 109.823 10.0069C110.56 9.61461 111.536 9.30111 112.54 9.12877ZM91.8603 22.9668C92.2163 23.9687 92.8263 24.8611 93.6307 25.5565C94.4351 26.2519 95.4062 26.7266 96.4491 26.9341C96.7496 26.994 97.0215 27.1525 97.2216 27.3844C97.4217 27.6164 97.5386 27.9086 97.5538 28.2146C97.5689 28.5205 97.4815 28.8228 97.3053 29.0735C97.1291 29.3241 96.8742 29.5087 96.5811 29.5979C96.0825 29.7501 95.571 29.8546 95.0521 29.9151C95.6154 30.6417 96.3343 31.2329 97.156 31.6454C97.9776 32.0578 98.8813 32.2809 99.8005 32.2984C100.084 32.3038 100.359 32.3967 100.588 32.5644C100.816 32.7321 100.988 32.9664 101.078 33.2352C101.168 33.504 101.173 33.7941 101.092 34.0659C101.011 34.3377 100.848 34.5778 100.625 34.7533C98.7137 36.2574 96.4922 37.3188 94.1208 37.8608C96.084 38.4892 98.1333 38.8077 100.195 38.8049H100.211C102.851 38.833 105.471 38.3347 107.916 37.3389C110.361 36.3432 112.584 34.8701 114.453 33.0056C116.323 31.1412 117.802 28.9229 118.804 26.4802C119.807 24.0376 120.312 21.4197 120.292 18.7794V17.7986C120.291 17.4647 120.413 17.1422 120.633 16.8911C120.761 16.7463 120.981 16.4126 121.293 15.8644C121.586 15.3474 121.912 14.7241 122.251 14.0659L122.312 13.9449C121.354 14.1605 120.368 14.2205 119.391 14.1228C119.061 14.0868 118.755 13.9325 118.53 13.6883C117.608 12.6885 116.38 12.0231 115.039 11.7963C114.363 11.7006 113.675 11.7161 113.004 11.8421C112.35 11.944 111.714 12.1436 111.119 12.4343C109.92 13.0752 108.967 14.0962 108.41 15.3372C107.853 16.5781 107.724 17.9687 108.043 19.2909C108.093 19.4989 108.094 19.7156 108.046 19.924C107.998 20.1323 107.901 20.3265 107.765 20.4912C107.628 20.6558 107.455 20.7864 107.26 20.8724C107.064 20.9584 106.851 20.9976 106.637 20.9868C101.004 20.7019 95.6789 18.3316 91.6971 14.3373C91.6198 14.7341 91.5811 15.1375 91.5816 15.5418V15.5454C91.5796 16.5551 91.8272 17.5497 92.3025 18.4405C92.7779 19.3313 93.4661 20.0908 94.306 20.6513C94.5526 20.8173 94.7388 21.0587 94.8366 21.3395C94.9345 21.6202 94.9387 21.9251 94.8486 22.2084C94.7586 22.4917 94.5792 22.7382 94.3372 22.911C94.0953 23.0838 93.8038 23.1734 93.5066 23.1666C92.9533 23.1513 92.4027 23.0838 91.8621 22.9649" fill="black"/>
<path d="M265.446 7.15647L268.054 6.37075C269.242 6.0125 270.519 6.09863 271.648 6.61305C272.776 7.12748 273.679 8.03504 274.188 9.16632L275.811 12.7775C276.248 13.7503 276.37 14.8356 276.159 15.8812C275.948 16.9268 275.416 17.8801 274.635 18.6075L271.799 21.2522C271.765 21.2859 271.736 21.3246 271.714 21.3669C271.417 21.9735 271.868 23.5936 273.281 26.0419C274.874 28.8013 276.105 29.8919 276.675 29.7238L280.398 28.5845C281.417 28.2731 282.509 28.2886 283.519 28.6288C284.529 28.9689 285.408 29.6166 286.031 30.4812L288.338 33.6759C289.062 34.679 289.398 35.9109 289.282 37.1427C289.167 38.3745 288.608 39.5225 287.71 40.3733L285.725 42.2512C285.035 42.9049 284.197 43.382 283.282 43.6417C282.368 43.9013 281.404 43.9359 280.473 43.7425C274.947 42.5922 269.995 38.1419 265.576 30.489C261.156 22.8315 259.778 16.31 261.553 10.9468C261.85 10.0488 262.36 9.23568 263.037 8.57596C263.715 7.91625 264.54 7.42937 265.446 7.15647ZM266.129 9.41304C265.586 9.5767 265.09 9.86876 264.683 10.2645C264.276 10.6603 263.971 11.1482 263.793 11.6869C262.262 16.3085 263.502 22.1793 267.619 29.3105C271.733 36.4369 276.193 40.444 280.956 41.434C281.514 41.5499 282.092 41.529 282.641 41.373C283.19 41.2171 283.692 40.9307 284.106 40.5383L286.09 38.662C286.573 38.204 286.874 37.5859 286.937 36.9226C286.999 36.2593 286.819 35.5959 286.429 35.0556L284.122 31.8593C283.786 31.3939 283.313 31.0452 282.77 30.862C282.226 30.6788 281.638 30.6704 281.089 30.8379L277.357 31.9803C275.292 32.5947 273.35 30.874 271.241 27.2189C269.454 24.1263 268.835 21.8918 269.599 20.3313C269.748 20.0275 269.946 19.7598 270.193 19.5283L273.029 16.8836C273.45 16.492 273.737 15.9786 273.85 15.4155C273.964 14.8524 273.898 14.2678 273.663 13.7439L272.038 10.1343C271.764 9.52502 271.278 9.03621 270.67 8.75917C270.062 8.48214 269.374 8.43583 268.735 8.62889L266.129 9.41304Z" fill="black"/>
</svg>
