<svg width="44" height="44" viewBox="0 0 44 44" fill="none" xmlns="http://www.w3.org/2000/svg">
<g clip-path="url(#clip0_195_723)">
<path d="M19.25 11C20.4136 10.9998 21.5338 11.4423 22.3832 12.2376C23.2327 13.0329 23.7478 14.1215 23.8241 15.2827L23.8333 15.5834V24.0259L32.0008 25.1369C33.7263 25.3344 35.3256 26.1378 36.5141 27.4042C37.7026 28.6706 38.4031 30.3177 38.4908 32.0522L38.5 32.4225V33C38.5031 35.175 38.0208 37.3234 37.0883 39.2884C36.8792 39.7277 36.5042 40.0659 36.0457 40.2287C35.5872 40.3915 35.0829 40.3655 34.6435 40.1564C34.2042 39.9474 33.866 39.5723 33.7032 39.1138C33.5404 38.6554 33.5664 38.151 33.7755 37.7117C34.3942 36.41 34.7494 34.9987 34.8205 33.5592L34.8333 33V32.4225C34.8334 31.5706 34.5368 30.7451 33.9945 30.0881C33.4522 29.431 32.698 28.9833 31.8615 28.8219L31.526 28.7724L23.4025 27.6669C22.5606 27.5674 21.7792 27.1793 21.1912 26.5686C20.6033 25.9579 20.2451 25.1624 20.1776 24.3174L20.1666 24.0259V15.5834C20.167 15.3543 20.0817 15.1334 19.9274 14.9641C19.773 14.7948 19.5609 14.6894 19.3328 14.6687C19.1047 14.6481 18.877 14.7135 18.6948 14.8523C18.5125 14.991 18.3888 15.1929 18.348 15.4184L18.3333 15.5834V31.1667C18.333 31.5462 18.2149 31.9163 17.9953 32.2259C17.7757 32.5355 17.4655 32.7693 17.1073 32.8951C16.7492 33.0208 16.3609 33.0323 15.996 32.928C15.631 32.8236 15.3075 32.6086 15.07 32.3125L14.4613 31.5664L13.9058 30.9174C12.8443 29.7129 12.0706 29.0474 11.4125 28.7119C11.0235 28.5013 10.5799 28.4137 10.1401 28.4607L9.88163 28.4974L14.4723 37.6805C14.6799 38.0985 14.7202 38.58 14.5851 39.0268C14.45 39.4735 14.1495 39.8519 13.745 40.0848C13.3405 40.3177 12.8624 40.3875 12.4082 40.28C11.954 40.1726 11.5579 39.896 11.3006 39.5065L11.1943 39.3195L6.10313 29.139C5.44313 27.819 5.93263 26.0535 7.47263 25.421C9.38479 24.6382 11.2016 24.4934 13.0735 25.443C13.4805 25.6502 13.8801 25.905 14.2725 26.202L14.6666 26.5137V15.5834C14.6666 14.3678 15.1495 13.202 16.0091 12.3424C16.8686 11.4829 18.0344 11 19.25 11ZM19.25 3.66669C21.0924 3.66635 22.9099 4.09323 24.5595 4.91381C26.2091 5.73439 27.646 6.9263 28.7573 8.3959C29.8686 9.86551 30.6239 11.5728 30.964 13.3836C31.3041 15.1944 31.2197 17.0594 30.7175 18.832C30.6566 19.0688 30.549 19.291 30.401 19.4855C30.253 19.6801 30.0676 19.8431 29.8557 19.9649C29.6438 20.0867 29.4096 20.165 29.167 20.195C28.9244 20.225 28.6783 20.2062 28.4431 20.1397C28.2078 20.0732 27.9883 19.9603 27.7973 19.8077C27.6064 19.6551 27.4478 19.4659 27.3311 19.2511C27.2144 19.0363 27.1418 18.8004 27.1175 18.5571C27.0933 18.3139 27.118 18.0683 27.1901 17.8347C27.5558 16.5422 27.6004 15.1799 27.3199 13.8663C27.0395 12.5527 26.4426 11.3274 25.581 10.2969C24.7194 9.26638 23.6192 8.46184 22.376 7.95316C21.1328 7.44447 19.7842 7.24703 18.4474 7.37799C17.1106 7.50895 15.8259 7.96434 14.7051 8.70461C13.5843 9.44488 12.6611 10.4476 12.0159 11.6257C11.3707 12.8039 11.0228 14.1217 11.0027 15.4648C10.9825 16.8079 11.2906 18.1356 11.9001 19.3325C12.1214 19.7658 12.1614 20.2691 12.0115 20.7319C11.8616 21.1947 11.534 21.579 11.1008 21.8002C10.6676 22.0214 10.1642 22.0615 9.70141 21.9116C9.23863 21.7617 8.85436 21.4341 8.63313 21.0009C7.70576 19.184 7.26033 17.1594 7.33946 15.1211C7.41859 13.0827 8.01965 11.0988 9.08508 9.35928C10.1505 7.61975 11.6446 6.18283 13.4244 5.1861C15.2042 4.18938 17.2101 3.66621 19.25 3.66669Z" fill="black" fill-opacity="0.75"/>
</g>
<defs>
<clipPath id="clip0_195_723">
<rect width="44" height="44" fill="white"/>
</clipPath>
</defs>
</svg>
