<svg width="50" height="50" viewBox="0 0 50 50" fill="none" xmlns="http://www.w3.org/2000/svg">
<path d="M25 19.5312C23.9184 19.5312 22.8611 19.852 21.9617 20.4529C21.0624 21.0538 20.3615 21.9079 19.9475 22.9072C19.5336 23.9065 19.4253 25.0061 19.6363 26.0669C19.8473 27.1277 20.3682 28.1022 21.133 28.867C21.8978 29.6318 22.8723 30.1527 23.9331 30.3637C24.9939 30.5747 26.0935 30.4664 27.0928 30.0525C28.0921 29.6385 28.9462 28.9376 29.5471 28.0383C30.148 27.1389 30.4688 26.0816 30.4688 25C30.4688 23.5496 29.8926 22.1586 28.867 21.133C27.8414 20.1074 26.4504 19.5312 25 19.5312ZM25 28.9062C24.2274 28.9062 23.4722 28.6772 22.8298 28.2479C22.1874 27.8187 21.6868 27.2086 21.3911 26.4949C21.0954 25.7811 21.0181 24.9957 21.1688 24.2379C21.3195 23.4802 21.6916 22.7842 22.2379 22.2379C22.7842 21.6916 23.4802 21.3195 24.2379 21.1688C24.9957 21.0181 25.7811 21.0954 26.4949 21.3911C27.2086 21.6867 27.8187 22.1874 28.2479 22.8298C28.6772 23.4722 28.9063 24.2274 28.9063 25C28.9063 26.036 28.4947 27.0296 27.7621 27.7621C27.0296 28.4947 26.036 28.9062 25 28.9062ZM9.375 19.5312C8.29339 19.5312 7.23606 19.852 6.33673 20.4529C5.4374 21.0538 4.73645 21.9079 4.32254 22.9072C3.90862 23.9065 3.80032 25.0061 4.01133 26.0669C4.22235 27.1277 4.74319 28.1022 5.50801 28.867C6.27283 29.6318 7.24727 30.1527 8.3081 30.3637C9.36894 30.5747 10.4685 30.4664 11.4678 30.0525C12.4671 29.6385 13.3212 28.9376 13.9221 28.0383C14.523 27.1389 14.8438 26.0816 14.8438 25C14.8438 23.5496 14.2676 22.1586 13.242 21.133C12.2164 20.1074 10.8254 19.5312 9.375 19.5312ZM9.375 28.9062C8.60242 28.9062 7.84719 28.6772 7.20481 28.2479C6.56243 27.8187 6.06175 27.2086 5.7661 26.4949C5.47044 25.7811 5.39309 24.9957 5.54381 24.2379C5.69453 23.4802 6.06657 22.7842 6.61287 22.2379C7.15917 21.6916 7.85519 21.3195 8.61293 21.1688C9.37067 21.0181 10.1561 21.0954 10.8699 21.3911C11.5836 21.6867 12.1937 22.1874 12.6229 22.8298C13.0522 23.4722 13.2813 24.2274 13.2813 25C13.2813 26.036 12.8697 27.0296 12.1371 27.7621C11.4046 28.4947 10.411 28.9062 9.375 28.9062ZM40.625 19.5312C39.5434 19.5312 38.4861 19.852 37.5867 20.4529C36.6874 21.0538 35.9865 21.9079 35.5725 22.9072C35.1586 23.9065 35.0503 25.0061 35.2613 26.0669C35.4723 27.1277 35.9932 28.1022 36.758 28.867C37.5228 29.6318 38.4973 30.1527 39.5581 30.3637C40.6189 30.5747 41.7185 30.4664 42.7178 30.0525C43.7171 29.6385 44.5712 28.9376 45.1721 28.0383C45.773 27.1389 46.0938 26.0816 46.0938 25C46.0938 24.2818 45.9523 23.5707 45.6775 22.9072C45.4026 22.2437 44.9998 21.6408 44.492 21.133C43.9842 20.6252 43.3813 20.2224 42.7178 19.9475C42.0543 19.6727 41.3432 19.5312 40.625 19.5312ZM40.625 28.9062C39.8524 28.9062 39.0972 28.6772 38.4548 28.2479C37.8124 27.8187 37.3118 27.2086 37.0161 26.4949C36.7204 25.7811 36.6431 24.9957 36.7938 24.2379C36.9445 23.4802 37.3166 22.7842 37.8629 22.2379C38.4092 21.6916 39.1052 21.3195 39.8629 21.1688C40.6207 21.0181 41.4061 21.0954 42.1199 21.3911C42.8336 21.6867 43.4437 22.1874 43.8729 22.8298C44.3022 23.4722 44.5313 24.2274 44.5313 25C44.5313 26.036 44.1197 27.0296 43.3871 27.7621C42.6546 28.4947 41.661 28.9062 40.625 28.9062Z" fill="black" fill-opacity="0.62"/>
</svg>
