<svg width="44" height="44" viewBox="0 0 44 44" fill="none" xmlns="http://www.w3.org/2000/svg">
<path d="M28.2253 4.125V1.375C28.2253 1.19266 28.2978 1.0178 28.4267 0.888864C28.5556 0.759933 28.7305 0.6875 28.9128 0.6875C29.0952 0.6875 29.27 0.759933 29.399 0.888864C29.5279 1.0178 29.6003 1.19266 29.6003 1.375V4.125C29.6003 4.30734 29.5279 4.4822 29.399 4.61114C29.27 4.74007 29.0952 4.8125 28.9128 4.8125C28.7305 4.8125 28.5556 4.74007 28.4267 4.61114C28.2978 4.4822 28.2253 4.30734 28.2253 4.125ZM34.0691 6.45391C34.1462 6.50126 34.232 6.53292 34.3214 6.54706C34.4108 6.5612 34.5021 6.55754 34.5901 6.5363C34.6781 6.51507 34.761 6.47666 34.8341 6.42329C34.9072 6.36992 34.9691 6.30264 35.0161 6.22531L36.3911 3.97203C36.4862 3.81613 36.5154 3.62887 36.4724 3.45142C36.4293 3.27398 36.3176 3.1209 36.1617 3.02586C36.0058 2.93082 35.8185 2.9016 35.6411 2.94463C35.4636 2.98766 35.3105 3.09942 35.2155 3.25531L33.8405 5.50859C33.7449 5.66362 33.7148 5.85023 33.7567 6.02746C33.7986 6.20469 33.9091 6.35806 34.0639 6.45391H34.0691ZM41.2225 9.41531C41.1948 9.32907 41.1504 9.24916 41.0917 9.18015C41.0331 9.11114 40.9614 9.05441 40.8807 9.0132C40.8 8.97199 40.712 8.94713 40.6217 8.94004C40.5315 8.93295 40.4407 8.94377 40.3546 8.97188L37.761 9.80547C37.6059 9.85643 37.474 9.96089 37.3889 10.1002C37.3038 10.2395 37.2711 10.4045 37.2965 10.5657C37.3219 10.7269 37.4039 10.8738 37.5277 10.9802C37.6515 11.0865 37.8092 11.1453 37.9724 11.1461C38.0441 11.1463 38.1154 11.1353 38.1838 11.1134L40.7722 10.2798C40.8582 10.2523 40.938 10.2081 41.0069 10.1498C41.0758 10.0914 41.1325 10.0201 41.1739 9.93979C41.2152 9.85951 41.2403 9.77187 41.2478 9.68188C41.2553 9.59189 41.2449 9.50131 41.2174 9.41531H41.2225ZM34.8906 32.5978C34.8271 32.9416 34.7514 33.2853 34.6603 33.6291C33.9858 36.1245 32.5877 38.3645 30.6422 40.0666C28.6967 41.7688 26.2909 42.8569 23.728 43.194C21.165 43.5311 18.5597 43.102 16.2402 41.9608C13.9207 40.8196 11.991 39.0174 10.6941 36.7812L4.64065 26.2969C4.28136 25.675 4.10663 24.9636 4.13691 24.246C4.16718 23.5284 4.40121 22.8342 4.8116 22.2448C5.22199 21.6554 5.79177 21.195 6.45427 20.9176C7.11677 20.6401 7.84457 20.5571 8.55252 20.6783L7.4233 18.7344C7.065 18.1129 6.89087 17.4023 6.92126 16.6856C6.95164 15.9689 7.18528 15.2756 7.59489 14.6867C8.00451 14.0977 8.5732 13.6375 9.23457 13.3596C9.89595 13.0818 10.6227 12.9978 11.33 13.1175L10.603 11.8594C10.1326 11.0542 9.97627 10.1037 10.1641 9.19032C10.3519 8.27695 10.8705 7.46518 11.6204 6.91096C12.3703 6.35674 13.2986 6.09915 14.2269 6.18769C15.1551 6.27623 16.0179 6.70464 16.6496 7.39062C16.9421 6.51891 17.5445 5.78496 18.3425 5.32812C19.2115 4.82706 20.2435 4.69043 21.213 4.94809C22.1824 5.20575 23.0104 5.83674 23.516 6.70312L26.2299 11.3953C26.482 10.7231 26.9199 10.1364 27.4926 9.70338C28.0652 9.27038 28.7491 9.00895 29.4646 8.94953C30.18 8.8901 30.8977 9.03512 31.5339 9.3677C32.1702 9.70028 32.6989 10.2067 33.0585 10.8281L36.6919 17.1136C38.0906 19.5468 38.6706 22.3651 38.3463 25.1529C38.022 27.9407 36.8106 30.5506 34.8906 32.5978ZM27.6856 13.9219L33.3575 23.7273C34.4874 25.6727 35.0921 27.8784 35.1124 30.128C36.3133 28.3132 36.9858 26.2001 37.0547 24.025C37.1236 21.85 36.5862 19.6986 35.5025 17.8114L31.8656 11.5156C31.5466 10.9613 31.0203 10.5565 30.4028 10.3902C29.7852 10.2238 29.1268 10.3097 28.5725 10.6287C28.0182 10.9478 27.6134 11.4741 27.4471 12.0916C27.2807 12.7092 27.3666 13.3676 27.6856 13.9219ZM18.1483 9.79688L23.0536 18.2686C23.361 17.4449 23.9458 16.7541 24.7074 16.3149C25.469 15.8758 26.3599 15.7157 27.2267 15.8623L22.3231 7.39062C22.0041 6.83701 21.4781 6.43282 20.861 6.26698C20.2439 6.10114 19.5862 6.18724 19.0326 6.50633C18.479 6.82542 18.0748 7.35136 17.909 7.96846C17.7431 8.58555 17.8292 9.24326 18.1483 9.79688ZM11.7889 11.1719L13.5077 14.1402C13.815 13.3168 14.3995 12.6262 15.1608 12.1871C15.9221 11.748 16.8125 11.5877 17.6791 11.7339L15.9689 8.76562C15.8109 8.49161 15.6005 8.25141 15.3497 8.05871C15.0989 7.86602 14.8125 7.72462 14.5071 7.64259C14.2016 7.56055 13.8829 7.53949 13.5693 7.5806C13.2557 7.62171 12.9533 7.72419 12.6792 7.88219C12.4052 8.04018 12.165 8.2506 11.9723 8.50143C11.7796 8.75226 11.6382 9.03859 11.5562 9.34407C11.4742 9.64954 11.4531 9.96818 11.4942 10.2818C11.5353 10.5954 11.6378 10.8979 11.7958 11.1719H11.7889ZM32.1561 24.4062L28.686 18.3906C28.5363 18.1122 28.3333 17.866 28.0885 17.666C27.8437 17.4661 27.5619 17.3163 27.2592 17.2253C26.6479 17.0414 25.9886 17.1079 25.4263 17.4101C24.8641 17.7123 24.4449 18.2255 24.261 18.8368C24.0771 19.4481 24.1436 20.1074 24.4458 20.6697L26.6114 24.4062C26.6566 24.4845 26.6859 24.5708 26.6976 24.6603C26.7094 24.7499 26.7034 24.8408 26.6801 24.928C26.6567 25.0153 26.6164 25.097 26.5614 25.1687C26.5064 25.2403 26.4378 25.3004 26.3596 25.3455C26.2814 25.3907 26.1951 25.42 26.1056 25.4318C26.016 25.4435 25.9251 25.4376 25.8378 25.4142C25.7506 25.3908 25.6688 25.3505 25.5972 25.2955C25.5256 25.2405 25.4655 25.172 25.4203 25.0938L19.1452 14.2656C18.987 13.9916 18.7763 13.7514 18.5251 13.5589C18.274 13.3664 17.9874 13.2254 17.6816 13.1438C17.3759 13.0622 17.0571 13.0417 16.7435 13.0835C16.4298 13.1253 16.1275 13.2286 15.8538 13.3873C15.301 13.7057 14.8973 14.2305 14.7313 14.8464C14.5653 15.4623 14.6507 16.1189 14.9686 16.6719L19.446 24.4062C19.4913 24.4844 19.5208 24.5708 19.5327 24.6604C19.5446 24.75 19.5387 24.841 19.5154 24.9284C19.4921 25.0157 19.4518 25.0976 19.3968 25.1693C19.3419 25.241 19.2733 25.3012 19.195 25.3464C19.1168 25.392 19.0303 25.4217 18.9405 25.4338C18.8507 25.4458 18.7595 25.44 18.6719 25.4167C18.5844 25.3934 18.5024 25.353 18.4305 25.2979C18.3586 25.2427 18.2983 25.174 18.2531 25.0955L12.791 15.6406C12.4719 15.0872 11.946 14.6833 11.3291 14.5176C10.7121 14.3519 10.0547 14.4381 9.50127 14.7572C8.94788 15.0763 8.54391 15.6021 8.37824 16.2191C8.21256 16.836 8.29875 17.4935 8.61784 18.0469L14.673 28.5312C14.7642 28.6894 14.7888 28.8773 14.7414 29.0537C14.694 29.23 14.5785 29.3802 14.4203 29.4714C14.2622 29.5626 14.0742 29.5872 13.8979 29.5398C13.7216 29.4924 13.5713 29.3769 13.4802 29.2188L9.99971 23.2031C9.68062 22.6495 9.15468 22.2453 8.53758 22.0795C7.92048 21.9136 7.26278 21.9997 6.70916 22.3188C6.15554 22.6379 5.75136 23.1639 5.58552 23.781C5.41968 24.3981 5.50578 25.0558 5.82487 25.6094L11.8869 36.0938C13.4368 38.7832 15.9915 40.7468 18.9892 41.5527C21.9868 42.3585 25.1818 41.9405 27.8713 40.3906C30.5607 38.8408 32.5244 36.286 33.3302 33.2883C34.136 30.2907 33.718 27.0957 32.1681 24.4062H32.1561Z" fill="black"/>
</svg>
