<svg width="44" height="44" viewBox="0 0 44 44" fill="none" xmlns="http://www.w3.org/2000/svg">
<path d="M42.711 19.733L31.118 8.06096C28.1478 5.09981 24.1238 3.43843 19.9297 3.44166C15.7356 3.44488 11.7142 5.11243 8.74849 8.07815L6.38005 10.5153C6.31526 10.5798 6.26397 10.6565 6.22918 10.7411C6.1944 10.8256 6.17682 10.9162 6.17747 11.0076C6.17812 11.099 6.197 11.1894 6.23298 11.2734C6.26897 11.3574 6.32135 11.4334 6.38705 11.4969C6.45276 11.5605 6.53048 11.6103 6.61566 11.6434C6.70084 11.6766 6.79177 11.6924 6.88314 11.69C6.97451 11.6875 7.06448 11.6669 7.14779 11.6293C7.2311 11.5917 7.30608 11.5379 7.36833 11.471L9.72817 9.03378C10.848 7.91208 12.1454 6.98293 13.5679 6.28378L22.4022 15.125L5.41583 32.1097C5.22355 32.3013 5.07099 32.529 4.96689 32.7797C4.86279 33.0304 4.8092 33.2992 4.8092 33.5707C4.8092 33.8421 4.86279 34.1109 4.96689 34.3616C5.07099 34.6123 5.22355 34.84 5.41583 35.0316L8.97192 38.5825C9.16354 38.7748 9.39122 38.9274 9.64192 39.0315C9.89262 39.1356 10.1614 39.1892 10.4329 39.1892C10.7043 39.1892 10.9731 39.1356 11.2238 39.0315C11.4745 38.9274 11.7022 38.7748 11.8938 38.5825L28.875 21.5927L31.8261 24.5455L34.8615 27.5808C35.0531 27.7731 35.2808 27.9257 35.5315 28.0298C35.7822 28.1339 36.0509 28.1874 36.3224 28.1874C36.5938 28.1874 36.8626 28.1339 37.1133 28.0298C37.364 27.9257 37.5917 27.7731 37.7833 27.5808L42.7144 22.6497C43.1007 22.2625 43.3174 21.7376 43.3168 21.1906C43.3161 20.6437 43.0982 20.1193 42.711 19.733ZM10.9141 37.608C10.8503 37.6719 10.7744 37.7226 10.691 37.7572C10.6075 37.7918 10.5181 37.8096 10.4277 37.8096C10.3374 37.8096 10.2479 37.7918 10.1644 37.7572C10.081 37.7226 10.0051 37.6719 9.9413 37.608L6.38864 34.0553C6.32472 33.9915 6.27401 33.9157 6.23941 33.8322C6.20482 33.7487 6.18701 33.6593 6.18701 33.5689C6.18701 33.4786 6.20482 33.3891 6.23941 33.3057C6.27401 33.2222 6.32472 33.1464 6.38864 33.0825L18.5625 20.9052L23.0897 25.4375L10.9141 37.608ZM28.3886 20.1352L24.0625 24.4613L19.5336 19.9375L23.8615 15.6063C23.9254 15.5424 23.9761 15.4666 24.0107 15.3831C24.0453 15.2997 24.0631 15.2102 24.0631 15.1199C24.0631 15.0295 24.0453 14.9401 24.0107 14.8566C23.9761 14.7731 23.9254 14.6973 23.8615 14.6335L14.924 5.69596C17.5134 4.74096 20.322 4.54713 23.0181 5.13738C25.7141 5.72764 28.1848 7.0773 30.1383 9.0269L38.2165 17.1652L32.3125 23.0863L29.3615 20.1352C29.2976 20.0713 29.2218 20.0206 29.1383 19.986C29.0549 19.9514 28.9654 19.9335 28.875 19.9335C28.7847 19.9335 28.6952 19.9514 28.6118 19.986C28.5283 20.0206 28.4525 20.0713 28.3886 20.1352ZM41.7365 21.6821L36.8071 26.6132C36.7432 26.6771 36.6674 26.7278 36.5839 26.7624C36.5005 26.797 36.411 26.8148 36.3207 26.8148C36.2303 26.8148 36.1409 26.797 36.0574 26.7624C35.9739 26.7278 35.8981 26.6771 35.8343 26.6132L33.2854 24.0625L39.1961 18.15L41.7365 20.7075C41.8645 20.8363 41.9364 21.0106 41.9364 21.1922C41.9364 21.3738 41.8645 21.5481 41.7365 21.6769V21.6821Z" fill="black"/>
</svg>
