<svg width="60" height="60" viewBox="0 0 60 60" fill="none" xmlns="http://www.w3.org/2000/svg">
<path d="M30 5C16.1925 5 5 16.1925 5 30C5 43.8075 16.1925 55 30 55C43.8075 55 55 43.8075 55 30C55 16.1925 43.8075 5 30 5Z" fill="#B38B70"/>
<path fill-rule="evenodd" clip-rule="evenodd" d="M20.7634 20.6391L34.5134 29.8058L20.7634 38.9725C20.5829 39.0928 20.4278 39.2476 20.307 39.4279C20.1863 39.6082 20.1022 39.8106 20.0596 40.0234C20.0171 40.2362 20.0168 40.4553 20.059 40.6682C20.1011 40.881 20.1847 41.0836 20.3051 41.2641C20.4255 41.4447 20.5802 41.5998 20.7605 41.7205C20.9409 41.8413 21.1432 41.9253 21.356 41.9679C21.5688 42.0105 21.7879 42.0107 22.0008 41.9686C22.2137 41.9265 22.4162 41.8428 22.5968 41.7225L38.1838 31.3311C38.4348 31.1637 38.6407 30.9369 38.7831 30.6708C38.9255 30.4047 39 30.1076 39 29.8058C39 29.504 38.9255 29.2069 38.7831 28.9408C38.6407 28.6747 38.4348 28.4479 38.1838 28.2805L22.5968 17.8891C22.4162 17.7687 22.2137 17.6851 22.0008 17.643C21.7879 17.6009 21.5688 17.6011 21.356 17.6437C21.1432 17.6862 20.9409 17.7703 20.7605 17.891C20.5802 18.0118 20.4255 18.1669 20.3051 18.3475C20.1847 18.528 20.1011 18.7305 20.059 18.9434C20.0168 19.1563 20.0171 19.3754 20.0596 19.5882C20.1022 19.801 20.1863 20.0033 20.307 20.1837C20.4278 20.364 20.5829 20.5187 20.7634 20.6391Z" fill="#F8E8D6" fill-opacity="0.5"/>
</svg>
