<svg width="30" height="30" viewBox="0 0 30 30" fill="none" xmlns="http://www.w3.org/2000/svg">
<path fill-rule="evenodd" clip-rule="evenodd" d="M1.5625 15C1.5625 7.57875 7.57875 1.5625 15 1.5625C22.4212 1.5625 28.4375 7.57875 28.4375 15C28.4375 22.4212 22.4212 28.4375 15 28.4375C7.57875 28.4375 1.5625 22.4212 1.5625 15ZM15 3.4375C11.9334 3.4375 8.99247 4.65569 6.82408 6.82408C4.65569 8.99247 3.4375 11.9334 3.4375 15C3.4375 18.0666 4.65569 21.0075 6.82408 23.1759C8.99247 25.3443 11.9334 26.5625 15 26.5625C18.0666 26.5625 21.0075 25.3443 23.1759 23.1759C25.3443 21.0075 26.5625 18.0666 26.5625 15C26.5625 11.9334 25.3443 8.99247 23.1759 6.82408C21.0075 4.65569 18.0666 3.4375 15 3.4375Z" fill="black" fill-opacity="0.37"/>
<path fill-rule="evenodd" clip-rule="evenodd" d="M15.3575 10.9375C12.8538 10.9375 10.9375 12.8163 10.9375 15C10.9375 17.1838 12.8538 19.0625 15.3575 19.0625C15.9963 19.0625 16.6012 18.9375 17.145 18.7163C17.259 18.6697 17.3811 18.6461 17.5042 18.6467C17.6273 18.6474 17.7491 18.6722 17.8627 18.7199C17.9762 18.7677 18.0792 18.8372 18.1658 18.9248C18.2524 19.0123 18.321 19.116 18.3675 19.23C18.414 19.344 18.4377 19.4661 18.437 19.5892C18.4364 19.7123 18.4115 19.8341 18.3638 19.9477C18.3161 20.0612 18.2465 20.1642 18.159 20.2508C18.0715 20.3374 17.9678 20.406 17.8538 20.4525C17.0609 20.7742 16.2131 20.9389 15.3575 20.9375C11.9425 20.9375 9.0625 18.3388 9.0625 15C9.0625 11.6613 11.9425 9.06251 15.3575 9.06251C16.2131 9.06115 17.0609 9.22586 17.8538 9.54751C18.0842 9.64133 18.2679 9.82283 18.3644 10.0521C18.461 10.2814 18.4626 10.5396 18.3687 10.77C18.2749 11.0004 18.0934 11.1841 17.8642 11.2807C17.6349 11.3773 17.3767 11.3788 17.1462 11.285C16.5782 11.0543 15.9706 10.9363 15.3575 10.9375Z" fill="black" fill-opacity="0.37"/>
</svg>
