<svg width="508" height="80" viewBox="0 0 508 80" fill="none" xmlns="http://www.w3.org/2000/svg">
<rect width="508" height="80" fill="white"/>
<path d="M483.383 44.1016C481.332 44.1016 479.549 45.0264 478.5 46.5762C477.451 45.0264 475.668 44.1016 473.617 44.1016C472.064 44.1034 470.574 44.7213 469.476 45.8197C468.378 46.9182 467.76 48.4075 467.758 49.9609C467.758 52.8125 469.535 55.7803 473.041 58.7803C474.648 60.1492 476.383 61.3593 478.223 62.3936C478.308 62.4394 478.403 62.4634 478.5 62.4634C478.597 62.4634 478.692 62.4394 478.777 62.3936C480.617 61.3593 482.352 60.1492 483.959 58.7803C487.465 55.7803 489.242 52.8125 489.242 49.9609C489.24 48.4075 488.622 46.9182 487.524 45.8197C486.426 44.7213 484.936 44.1034 483.383 44.1016ZM478.5 61.2021C476.897 60.2773 468.93 55.4023 468.93 49.9609C468.931 48.7181 469.425 47.5266 470.304 46.6478C471.183 45.769 472.374 45.2747 473.617 45.2734C475.598 45.2734 477.261 46.3311 477.958 48.0342C478.002 48.1416 478.077 48.2336 478.174 48.2983C478.27 48.3629 478.384 48.3975 478.5 48.3975C478.616 48.3975 478.73 48.3629 478.826 48.2983C478.923 48.2336 478.998 48.1416 479.042 48.0342C479.739 46.3311 481.402 45.2734 483.383 45.2734C484.626 45.2747 485.817 45.769 486.696 46.6478C487.575 47.5266 488.069 48.7181 488.07 49.9609C488.07 55.4023 480.103 60.2773 478.5 61.2021Z" fill="black"/>
</svg>
