<svg width="381" height="50" viewBox="0 0 381 50" fill="none" xmlns="http://www.w3.org/2000/svg">
<rect width="381" height="50" fill="white"/>
<path fill-rule="evenodd" clip-rule="evenodd" d="M24.0809 14H27.5V8.5H24.0809C22.0677 8.50243 20.1376 9.30325 18.714 10.7268C17.2905 12.1504 16.4896 14.0804 16.4872 16.0937V19.5H12.8334V25H16.5V43.2197H22V25H25.7052L26.7905 19.5H22V15.0835C22.0043 14.7972 22.1201 14.5238 22.3228 14.3214C22.5254 14.1191 22.799 14.0038 23.0854 14H24.0809Z" fill="black"/>
<path d="M345.463 37.8332C344.618 37.8332 343.914 37.5508 343.349 36.9862C342.784 36.4215 342.501 35.7163 342.5 34.8705V15.1292C342.5 14.2846 342.783 13.58 343.349 13.0153C343.915 12.4507 344.619 12.1677 345.461 12.1665H372.539C373.383 12.1665 374.087 12.4494 374.651 13.0153C375.216 13.5812 375.499 14.2858 375.5 15.1292V34.8723C375.5 35.7157 375.217 36.4203 374.651 36.9862C374.085 37.5521 373.381 37.8344 372.539 37.8332H345.463ZM359 25.2125L344.333 15.6223V34.8723C344.333 35.2011 344.439 35.4712 344.65 35.6827C344.862 35.8941 345.133 35.9998 345.463 35.9998H372.539C372.868 35.9998 373.138 35.8941 373.35 35.6827C373.561 35.4712 373.667 35.2005 373.667 34.8705V15.6205L359 25.2125ZM359 23.1665L373.102 13.9998H344.898L359 23.1665ZM344.333 15.6223V13.9998V34.8723C344.333 35.2011 344.439 35.4712 344.65 35.6827C344.862 35.8941 345.133 35.9998 345.463 35.9998H344.333V15.6223Z" fill="black"/>
<path d="M191 17.4833C189.513 17.4833 188.06 17.9242 186.824 18.7501C185.588 19.5761 184.624 20.75 184.056 22.1235C183.487 23.497 183.338 25.0083 183.628 26.4664C183.918 27.9245 184.634 29.2639 185.685 30.3151C186.736 31.3663 188.075 32.0822 189.534 32.3722C190.992 32.6623 192.503 32.5134 193.877 31.9445C195.25 31.3756 196.424 30.4122 197.25 29.176C198.076 27.9399 198.517 26.4867 198.517 25C198.519 24.0122 198.326 23.0337 197.949 22.1206C197.573 21.2076 197.019 20.378 196.32 19.6795C195.622 18.9811 194.792 18.4275 193.879 18.0506C192.966 17.6737 191.988 17.4809 191 17.4833ZM191 29.895C190.032 29.895 189.085 29.6079 188.28 29.07C187.476 28.5322 186.848 27.7677 186.478 26.8732C186.107 25.9788 186.01 24.9946 186.199 24.045C186.388 23.0955 186.854 22.2233 187.539 21.5387C188.223 20.8541 189.096 20.3879 190.045 20.1991C190.995 20.0102 191.979 20.1071 192.873 20.4776C193.768 20.8481 194.532 21.4755 195.07 22.2805C195.608 23.0855 195.895 24.0319 195.895 25C195.895 26.2982 195.379 27.5433 194.461 28.4613C193.543 29.3793 192.298 29.895 191 29.895ZM200.588 17.1717C200.588 17.5343 200.481 17.8887 200.279 18.1902C200.078 18.4917 199.792 18.7267 199.457 18.8655C199.122 19.0042 198.753 19.0405 198.397 18.9698C198.042 18.899 197.715 18.7244 197.459 18.468C197.202 18.2116 197.028 17.885 196.957 17.5293C196.886 17.1737 196.922 16.8051 197.061 16.4701C197.2 16.1351 197.435 15.8488 197.736 15.6473C198.038 15.4459 198.392 15.3383 198.755 15.3383C199.241 15.3383 199.708 15.5315 200.051 15.8753C200.395 16.2191 200.588 16.6854 200.588 17.1717ZM205.557 19.005C205.612 16.7255 204.762 14.517 203.192 12.8633C202.377 12.0761 201.416 11.4571 200.362 11.0419C199.308 10.6266 198.183 10.4232 197.05 10.4433C194.667 10.3333 187.333 10.3333 184.95 10.4433C182.672 10.394 180.465 11.2436 178.808 12.8083C177.238 14.462 176.388 16.6705 176.443 18.95C176.333 21.3333 176.333 28.6667 176.443 31.05C176.388 33.3295 177.238 35.538 178.808 37.1917C180.465 38.7564 182.672 39.606 184.95 39.5567C187.37 39.7033 194.63 39.7033 197.05 39.5567C199.33 39.612 201.538 38.7616 203.192 37.1917C204.762 35.538 205.612 33.3295 205.557 31.05C205.667 28.6667 205.667 21.3333 205.557 18.95V19.005ZM202.44 33.6717C202.191 34.3022 201.815 34.8749 201.336 35.3543C200.857 35.8336 200.284 36.2094 199.653 36.4583C196.807 37.0337 193.898 37.231 191 37.045C188.108 37.2294 185.205 37.0321 182.365 36.4583C181.734 36.2094 181.162 35.8336 180.682 35.3543C180.203 34.8749 179.827 34.3022 179.578 33.6717C178.808 31.7283 178.973 27.145 178.973 25.0183C178.973 22.8917 178.808 18.29 179.578 16.365C179.82 15.7282 180.193 15.1494 180.673 14.6662C181.153 14.183 181.73 13.8061 182.365 13.56C185.205 12.9862 188.108 12.789 191 12.9733C193.898 12.7873 196.807 12.9846 199.653 13.56C200.284 13.8089 200.857 14.1847 201.336 14.6641C201.815 15.1434 202.191 15.7161 202.44 16.3467C203.21 18.29 203.027 22.8733 203.027 25C203.027 27.1267 203.21 31.7283 202.44 33.6533V33.6717Z" fill="black"/>
<path fill-rule="evenodd" clip-rule="evenodd" d="M112.54 9.12902C113.472 8.96952 114.515 8.91635 115.497 9.08318C117.248 9.37884 118.87 10.1917 120.154 11.417C120.99 11.4353 121.813 11.2703 122.541 11.0357C123.245 10.8063 123.92 10.4982 124.554 10.1172L124.571 10.1062C124.835 9.93028 125.151 9.85108 125.467 9.88201C125.783 9.91293 126.078 10.0521 126.303 10.2758C126.528 10.4996 126.668 10.7943 126.701 11.1098C126.733 11.4254 126.656 11.7425 126.481 12.0074C126.101 12.5849 125.572 13.6152 124.979 14.7702L124.695 15.322C124.356 15.982 124.008 16.6493 123.683 17.2213C123.48 17.5807 123.262 17.9455 123.042 18.2609V18.7632C123.064 21.7674 122.488 24.7459 121.347 27.5251C120.206 30.3042 118.523 32.8283 116.396 34.95C114.269 37.0717 111.741 38.7485 108.959 39.8825C106.177 41.0166 103.197 41.5852 100.193 41.5552C95.8394 41.5591 91.5777 40.3049 87.9205 37.9435C87.658 37.7749 87.4606 37.522 87.3609 37.2264C87.2611 36.9308 87.2649 36.61 87.3715 36.3168C87.4781 36.0236 87.6813 35.7754 87.9476 35.6129C88.2139 35.4504 88.5276 35.3833 88.8371 35.4227C91.3632 35.7246 93.9235 35.3171 96.231 34.2457C95.1052 33.7339 94.0983 32.9933 93.2745 32.071C92.4506 31.1486 91.8279 30.0649 91.446 28.8887C91.3732 28.6635 91.3597 28.4234 91.407 28.1915C91.4542 27.9596 91.5604 27.7438 91.7155 27.565L91.7338 27.5467C90.8034 26.7178 90.0577 25.7025 89.5451 24.5667C89.0325 23.431 88.7644 22.2001 88.7583 20.954V20.8587C88.7582 20.5568 88.8574 20.2633 89.0406 20.0234C89.2238 19.7836 89.4809 19.6106 89.7721 19.5314C89.1513 18.2926 88.8292 16.9258 88.8316 15.5402C88.8306 13.9693 89.2415 12.4257 90.0233 11.0632C90.1344 10.8698 90.2908 10.7063 90.4792 10.5868C90.6675 10.4674 90.8821 10.3955 91.1044 10.3775C91.3267 10.3594 91.5501 10.3957 91.7552 10.4832C91.9604 10.5708 92.1411 10.7069 92.282 10.8798C95.4888 14.8306 100.083 17.4077 105.126 18.0848C105.083 16.4352 105.499 14.8059 106.328 13.3793C107.158 11.9527 108.368 10.7851 109.823 10.0072C110.56 9.61485 111.536 9.30135 112.54 9.12902ZM91.8603 22.967C92.2163 23.969 92.8263 24.8613 93.6307 25.5568C94.4351 26.2522 95.4062 26.7269 96.4491 26.9344C96.7496 26.9942 97.0215 27.1527 97.2216 27.3847C97.4217 27.6166 97.5386 27.9088 97.5538 28.2148C97.5689 28.5208 97.4815 28.8231 97.3053 29.0737C97.1291 29.3243 96.8742 29.5089 96.5811 29.5982C96.0825 29.7504 95.571 29.8548 95.0521 29.9153C95.6154 30.642 96.3343 31.2332 97.156 31.6456C97.9776 32.058 98.8813 32.2812 99.8005 32.2987C100.084 32.304 100.359 32.3969 100.588 32.5646C100.816 32.7323 100.988 32.9666 101.078 33.2354C101.168 33.5042 101.173 33.7944 101.092 34.0662C101.011 34.3379 100.848 34.578 100.625 34.7535C98.7137 36.2577 96.4922 37.319 94.1208 37.861C96.084 38.4894 98.1333 38.808 100.195 38.8052H100.211C102.851 38.8333 105.471 38.3349 107.916 37.3392C110.361 36.3434 112.584 34.8703 114.453 33.0059C116.323 31.1414 117.802 28.9231 118.804 26.4805C119.807 24.0378 120.312 21.4199 120.292 18.7797V17.7988C120.291 17.465 120.413 17.1424 120.633 16.8914C120.761 16.7465 120.981 16.4129 121.293 15.8647C121.586 15.3477 121.912 14.7243 122.251 14.0662L122.312 13.9452C121.354 14.1607 120.368 14.2207 119.391 14.123C119.061 14.087 118.755 13.9327 118.53 13.6885C117.608 12.6888 116.38 12.0233 115.039 11.7965C114.363 11.7008 113.675 11.7163 113.004 11.8423C112.35 11.9442 111.714 12.1438 111.119 12.4345C109.92 13.0755 108.967 14.0965 108.41 15.3374C107.853 16.5783 107.724 17.969 108.043 19.2912C108.093 19.4991 108.094 19.7158 108.046 19.9242C107.998 20.1326 107.901 20.3268 107.765 20.4914C107.628 20.6561 107.455 20.7866 107.26 20.8726C107.064 20.9587 106.851 20.9978 106.637 20.987C101.004 20.7021 95.6789 18.3319 91.6971 14.3375C91.6198 14.7343 91.5811 15.1377 91.5816 15.542V15.5457C91.5796 16.5554 91.8272 17.5499 92.3025 18.4408C92.7779 19.3316 93.4661 20.091 94.306 20.6515C94.5526 20.8175 94.7388 21.059 94.8366 21.3397C94.9345 21.6204 94.9387 21.9253 94.8486 22.2086C94.7586 22.492 94.5792 22.7385 94.3372 22.9112C94.0953 23.084 93.8038 23.1737 93.5066 23.1669C92.9533 23.1515 92.4027 23.084 91.8621 22.9652" fill="black"/>
<path d="M265.446 7.15622L268.054 6.37051C269.242 6.01226 270.519 6.09839 271.648 6.61281C272.776 7.12723 273.679 8.0348 274.188 9.16608L275.811 12.7772C276.248 13.75 276.37 14.8354 276.159 15.881C275.948 16.9266 275.416 17.8799 274.635 18.6072L271.799 21.2519C271.765 21.2856 271.736 21.3243 271.714 21.3666C271.417 21.9732 271.868 23.5934 273.281 26.0417C274.874 28.8011 276.105 29.8917 276.675 29.7235L280.398 28.5842C281.417 28.2729 282.509 28.2884 283.519 28.6285C284.529 28.9687 285.408 29.6164 286.031 30.4809L288.338 33.6756C289.062 34.6787 289.398 35.9107 289.282 37.1425C289.167 38.3743 288.608 39.5223 287.71 40.3731L285.725 42.2509C285.035 42.9047 284.197 43.3817 283.282 43.6414C282.368 43.9011 281.404 43.9357 280.473 43.7422C274.947 42.5919 269.995 38.1416 265.576 30.4888C261.156 22.8312 259.778 16.3098 261.553 10.9465C261.85 10.0486 262.36 9.23543 263.037 8.57572C263.715 7.916 264.54 7.42912 265.446 7.15622ZM266.129 9.41279C265.586 9.57646 265.09 9.86852 264.683 10.2643C264.276 10.6601 263.971 11.1479 263.793 11.6866C262.262 16.3082 263.502 22.1791 267.619 29.3102C271.733 36.4366 276.193 40.4438 280.956 41.4338C281.514 41.5497 282.092 41.5288 282.641 41.3728C283.19 41.2168 283.692 40.9304 284.106 40.5381L286.09 38.6618C286.573 38.2038 286.874 37.5857 286.937 36.9224C286.999 36.259 286.819 35.5956 286.429 35.0554L284.122 31.8591C283.786 31.3937 283.313 31.0449 282.77 30.8618C282.226 30.6786 281.638 30.6702 281.089 30.8377L277.357 31.9801C275.292 32.5945 273.35 30.8738 271.241 27.2186C269.454 24.1261 268.835 21.8915 269.599 20.3311C269.748 20.0273 269.946 19.7596 270.193 19.5281L273.029 16.8834C273.45 16.4917 273.737 15.9783 273.85 15.4152C273.964 14.8521 273.898 14.2676 273.663 13.7436L272.038 10.1341C271.764 9.52477 271.278 9.03596 270.67 8.75893C270.062 8.4819 269.374 8.43559 268.735 8.62865L266.129 9.41279Z" fill="black"/>
</svg>
