<svg width="25" height="25" viewBox="0 0 25 25" fill="none" xmlns="http://www.w3.org/2000/svg">
<path d="M12.5 1.12305C12.3193 1.12305 12.1387 1.12793 11.958 1.13623L11.9971 2.01416C12.1631 2.00635 12.3291 2.00195 12.5 2.00195C18.3008 2.00195 22.998 6.69922 22.998 12.5C22.998 18.3008 18.3008 22.998 12.5 22.998C8.125 22.998 4.37744 20.3271 2.80029 16.5234L4.14941 16.1182L1.78467 14.4434L0.854492 17.1045L1.95557 16.7773C3.64648 20.9375 7.73438 23.877 12.5 23.877C18.7793 23.877 23.877 18.7793 23.877 12.5C23.877 6.2207 18.7793 1.12305 12.5 1.12305ZM10.9961 1.22266C10.3467 1.30811 9.72168 1.44727 9.11133 1.63672L9.38477 2.47119C9.94141 2.29834 10.5225 2.1709 11.1133 2.09277L10.9961 1.22266ZM8.21289 1.96094C7.60742 2.20752 7.03125 2.50391 6.48438 2.8457L6.94824 3.58838C7.45117 3.27393 7.9834 3.00098 8.54004 2.77441L8.21289 1.96094ZM5.68359 3.39355C5.17098 3.77776 4.69159 4.20439 4.25049 4.66895L4.8877 5.26855C5.29297 4.84033 5.7373 4.44775 6.20605 4.09375L5.97168 3.77295L5.68359 3.39355ZM9.07715 3.8125L8.8623 4.66406L19.458 7.37305L19.6729 6.52344L9.07715 3.8125ZM3.6167 5.39551C3.2168 5.89355 2.85791 6.43066 2.54541 6.99219L3.30957 7.42188C3.59814 6.89941 3.9292 6.40625 4.29883 5.94238L3.6167 5.39551ZM9.84863 5.8252C9.6582 7.09473 9.98535 8.52051 10.542 9.69238C10.8545 10.3467 11.2354 10.9229 11.6113 11.3428C11.8164 11.5723 12.0215 11.748 12.207 11.875L11.9434 12.9102C11.7188 12.9297 11.4551 12.9883 11.1621 13.0908C10.6299 13.2764 10.0195 13.5986 9.43359 14.0234C8.37891 14.7852 7.41211 15.874 6.97266 17.0801L15.1514 19.1748C15.3418 17.9053 15.0146 16.4795 14.458 15.3076C14.1455 14.6533 13.7646 14.0771 13.3887 13.6572C13.1836 13.4277 12.9785 13.252 12.793 13.125L13.0566 12.0898C13.2764 12.0654 13.5449 12.0117 13.8379 11.9092C14.3701 11.7236 14.9805 11.4014 15.5664 10.9766C16.6211 10.2148 17.5879 9.12598 18.0273 7.91992L9.84863 5.8252ZM2.11133 7.85644C1.85107 8.44238 1.6377 9.04785 1.47656 9.67773L2.33008 9.88281C2.47803 9.30664 2.67383 8.75 2.91357 8.21289L2.11133 7.85644ZM1.2793 10.6201C1.17725 11.2305 1.12305 11.8604 1.12305 12.5V12.5439L2.00195 12.5342V12.5C2.00195 11.9092 2.05176 11.3281 2.146 10.7617L1.2793 10.6201ZM5.54199 17.627L5.32715 18.4766L15.9229 21.1865L16.1377 20.3369L5.54199 17.627Z" fill="black"/>
</svg>
