<svg width="25" height="25" viewBox="0 0 25 25" fill="none" xmlns="http://www.w3.org/2000/svg">
<path d="M17.3828 4.10156C15.332 4.10156 13.5488 5.02637 12.5 6.57617C11.4512 5.02637 9.66797 4.10156 7.61719 4.10156C6.06374 4.10337 4.57444 4.72128 3.47598 5.81973C2.37753 6.91819 1.75962 8.40749 1.75781 9.96094C1.75781 12.8125 3.53516 15.7803 7.04102 18.7803C8.64752 20.1492 10.3828 21.3593 12.2227 22.3936C12.3079 22.4394 12.4032 22.4634 12.5 22.4634C12.5968 22.4634 12.6921 22.4394 12.7773 22.3936C14.6172 21.3593 16.3525 20.1492 17.959 18.7803C21.4648 15.7803 23.2422 12.8125 23.2422 9.96094C23.2404 8.40749 22.6225 6.91819 21.524 5.81973C20.4256 4.72128 18.9363 4.10337 17.3828 4.10156ZM12.5 21.2021C10.8975 20.2773 2.92969 15.4023 2.92969 9.96094C2.93098 8.71813 3.42526 7.5266 4.30405 6.6478C5.18285 5.76901 6.37438 5.27473 7.61719 5.27344C9.59766 5.27344 11.2607 6.33105 11.958 8.03418C12.0022 8.14165 12.0772 8.23356 12.1738 8.29825C12.2703 8.36294 12.3838 8.39748 12.5 8.39748C12.6162 8.39748 12.7297 8.36294 12.8262 8.29825C12.9228 8.23356 12.9978 8.14165 13.042 8.03418C13.7393 6.33105 15.4023 5.27344 17.3828 5.27344C18.6256 5.27473 19.8172 5.76901 20.6959 6.6478C21.5747 7.5266 22.069 8.71813 22.0703 9.96094C22.0703 15.4023 14.1025 20.2773 12.5 21.2021Z" fill="black"/>
</svg>
