<svg width="25" height="25" viewBox="0 0 25 25" fill="none" xmlns="http://www.w3.org/2000/svg">
<path d="M23.4375 9.96094C23.4375 16.7969 13.3018 22.3301 12.8701 22.5586C12.7563 22.6198 12.6292 22.6518 12.5 22.6518C12.3708 22.6518 12.2436 22.6198 12.1299 22.5586C11.6982 22.3301 1.5625 16.7969 1.5625 9.96094C1.56431 8.35569 2.20279 6.81671 3.33788 5.68163C4.47296 4.54654 6.01194 3.90806 7.61719 3.90625C9.63379 3.90625 11.3994 4.77344 12.5 6.23926C13.6006 4.77344 15.3662 3.90625 17.3828 3.90625C18.9881 3.90806 20.527 4.54654 21.6621 5.68163C22.7972 6.81671 23.4357 8.35569 23.4375 9.96094Z" fill="#FF0303"/>
</svg>
