<svg width="89" height="90" viewBox="0 0 89 90" fill="none" xmlns="http://www.w3.org/2000/svg">
<path d="M82.0469 52.4916C82.0469 57.8986 81.0039 62.4936 79.057 65.7736C76.7382 69.6619 73.1469 71.7186 68.6273 71.7186C59.7447 71.7186 53.0419 59.0623 45.9428 45.6643C39.5563 33.5846 32.937 21.0936 25.7266 21.0936C21.8676 21.0936 17.8348 24.7955 14.6572 31.2502C11.4898 37.8778 9.80885 45.131 9.73438 52.4916C9.73438 57.3889 10.6313 61.4775 12.3244 64.3217C14.1392 67.3627 16.8439 68.892 20.3588 68.892C26.3211 68.892 31.8557 60.342 36.9524 51.1029C37.0414 50.9413 37.161 50.7991 37.3044 50.6842C37.4478 50.5694 37.6122 50.4842 37.7881 50.4336C37.9641 50.383 38.1482 50.368 38.3299 50.3893C38.5116 50.4107 38.6873 50.468 38.8471 50.558C39.0069 50.648 39.1476 50.769 39.2612 50.914C39.3747 51.059 39.4589 51.2252 39.509 51.4032C39.559 51.5811 39.5739 51.7672 39.5528 51.951C39.5317 52.1347 39.475 52.3124 39.386 52.474C34.2511 61.7904 28.1254 71.7186 20.3588 71.7186C15.8636 71.7186 12.2618 69.6619 9.92906 65.7736C7.99609 62.4936 6.95312 57.8986 6.95312 52.4916C7.03297 44.6949 8.81361 37.0122 12.168 29.9916C15.8844 22.44 20.6995 18.2811 25.7266 18.2811C34.6057 18.2811 41.312 30.9373 48.4111 44.3354C54.8115 56.415 61.4274 68.9061 68.6447 68.9061C72.163 68.9061 74.8643 67.3627 76.6791 64.3357C78.3721 61.4916 79.2691 57.4029 79.2691 52.5057C79.1946 45.145 77.5137 37.8919 74.3463 31.2643C71.1652 24.7955 67.1324 21.0936 63.2734 21.0936C59.8838 21.0936 56.2682 23.9061 52.2249 29.7314C52.0077 30.023 51.687 30.2177 51.3304 30.2744C50.9738 30.3311 50.6094 30.2455 50.3142 30.0355C50.019 29.8255 49.816 29.5076 49.7483 29.1491C49.6806 28.7906 49.7534 28.4195 49.9512 28.1143C54.6168 21.4064 58.8512 18.2705 63.2734 18.2705C68.2971 18.2705 73.1121 22.4295 76.832 29.9846C80.1874 37.0073 81.968 44.6926 82.0469 52.4916Z" fill="black"/>
</svg>
