<svg width="15" height="15" viewBox="0 0 15 15" fill="none" xmlns="http://www.w3.org/2000/svg">
<path d="M10.625 3.125H11.875C12.0408 3.125 12.1997 3.19085 12.3169 3.30806C12.4342 3.42527 12.5 3.58424 12.5 3.75V4.375C12.5 4.54076 12.4342 4.69973 12.3169 4.81694C12.1997 4.93415 12.0408 5 11.875 5H11.25C11.0842 5 10.9253 5.06585 10.8081 5.18306C10.6908 5.30027 10.625 5.45924 10.625 5.625V6.25C10.625 6.41576 10.6908 6.57473 10.8081 6.69194C10.9253 6.80915 11.0842 6.875 11.25 6.875H12.5M2.5 7.5V11.25M2.5 8.75C2.5 8.41848 2.6317 8.10054 2.86612 7.86612C3.10054 7.6317 3.41848 7.5 3.75 7.5H4.0625C4.4769 7.5 4.87433 7.66462 5.16735 7.95765C5.46038 8.25067 5.625 8.6481 5.625 9.0625M5.625 9.0625V11.25M5.625 9.0625V9.6875M5.625 9.0625C5.625 8.6481 5.78962 8.25067 6.08265 7.95765C6.37567 7.66462 6.7731 7.5 7.1875 7.5C7.6019 7.5 7.99933 7.66462 8.29235 7.95765C8.58538 8.25067 8.75 8.6481 8.75 9.0625V11.25" stroke="black" stroke-width="2" stroke-linecap="round" stroke-linejoin="round"/>
</svg>
